<svg id="Layer_1" data-name="Layer 1" xmlns="http://www.w3.org/2000/svg" viewBox="0 0 200 44.25"><defs><style>.cls-1{fill:none;stroke:#24ae5f;stroke-miterlimit:10;}.cls-2{fill:#24ae5f;}</style></defs><polygon class="cls-1" points="29.73 21.56 19.09 2.13 8.79 2.13 8.79 42.1 18.39 42.1 18.39 21.8 29.73 42.56 41.08 21.8 41.08 42.1 50.67 42.1 50.67 2.13 40.32 2.13 29.73 21.56"/><path class="cls-2" d="M82.73,16.53a15.07,15.07,0,0,0-5.18-3,19.56,19.56,0,0,0-6.4-1,20.1,20.1,0,0,0-6.05.93,15.43,15.43,0,0,0-5.26,2.82A14,14,0,0,0,56.14,21a14.72,14.72,0,0,0-1.39,6.6,14.6,14.6,0,0,0,1.39,6.58,13.79,13.79,0,0,0,3.7,4.65,15.72,15.72,0,0,0,5.26,2.79,20.18,20.18,0,0,0,12.54-.14,16,16,0,0,0,5.49-3.23l-5.81-5.18a5,5,0,0,1-2.56,2,10.17,10.17,0,0,1-3.61.67,6.28,6.28,0,0,1-3.69-1.11,8.64,8.64,0,0,1-2.59-2.79l22.74-.06V27.67a16.72,16.72,0,0,0-1.39-6.37A14.1,14.1,0,0,0,82.73,16.53ZM64.11,24.88a10.91,10.91,0,0,1,.73-1.69,6.19,6.19,0,0,1,1.07-1.45A9.27,9.27,0,0,1,68.3,20a6.37,6.37,0,0,1,2.85-.61,6.57,6.57,0,0,1,2.91.61,9.23,9.23,0,0,1,2.38,1.78,6,6,0,0,1,1.08,1.45,12,12,0,0,1,.73,1.69Z"/><path class="cls-2" d="M117.92,16.53a15.07,15.07,0,0,0-5.18-3,19.56,19.56,0,0,0-6.4-1,20.15,20.15,0,0,0-6,.93A15.43,15.43,0,0,0,95,16.3,14.15,14.15,0,0,0,91.33,21a14.72,14.72,0,0,0-1.39,6.6,14.6,14.6,0,0,0,1.39,6.58A13.92,13.92,0,0,0,95,38.84a15.72,15.72,0,0,0,5.26,2.79,20.15,20.15,0,0,0,6,.93,19.94,19.94,0,0,0,6.49-1.07,16,16,0,0,0,5.5-3.23l-5.82-5.18a5,5,0,0,1-2.56,2,10.13,10.13,0,0,1-3.61.67,6.31,6.31,0,0,1-3.69-1.11,8.64,8.64,0,0,1-2.59-2.79l22.74-.06V27.67a16.54,16.54,0,0,0-1.39-6.37A14.1,14.1,0,0,0,117.92,16.53ZM99.3,24.88a12,12,0,0,1,.73-1.69,6,6,0,0,1,1.08-1.45A9.23,9.23,0,0,1,103.49,20a6.43,6.43,0,0,1,2.85-.61,6.51,6.51,0,0,1,2.91.61,9.27,9.27,0,0,1,2.39,1.78,6.19,6.19,0,0,1,1.07,1.45,10.91,10.91,0,0,1,.73,1.69Z"/><path class="cls-2" d="M146.86,28.75a8.83,8.83,0,0,0-2-2.24,14.1,14.1,0,0,0-3.4-1.92l-3.55-1.51a15.21,15.21,0,0,1-2-.91q-.78-.44-.78-.9a1.12,1.12,0,0,1,.52-.87,3.43,3.43,0,0,1,2-.41,5.6,5.6,0,0,1,1.31.18,8.54,8.54,0,0,1,1.45.49c.48.22.94.44,1.37.67a9.58,9.58,0,0,1,1.1.7l4.89-5.93a12.78,12.78,0,0,0-4.45-2.56,16.67,16.67,0,0,0-5.67-1,19.09,19.09,0,0,0-4,.43A11.72,11.72,0,0,0,130,14.41a7.78,7.78,0,0,0-2.65,2.67,8,8,0,0,0-1,4.19,8.17,8.17,0,0,0,1.63,5.06A12.44,12.44,0,0,0,133,30l3.55,1.51a13.06,13.06,0,0,1,1.8.9,1.05,1.05,0,0,1,.47.9.85.85,0,0,1-.29.7,2.42,2.42,0,0,1-.58.35,1.8,1.8,0,0,1-.82.17,11.21,11.21,0,0,1-2.27-.23c-.77-.15-1.52-.34-2.24-.55a14.53,14.53,0,0,1-1.89-.7,5.12,5.12,0,0,1-1.22-.73l-3.84,6.17a15.74,15.74,0,0,0,4.68,2.82,17.36,17.36,0,0,0,6.78,1.25A16.63,16.63,0,0,0,141,42.1a10.83,10.83,0,0,0,3.49-1.49A8.19,8.19,0,0,0,147.06,38a7.39,7.39,0,0,0,1-3.9,16.76,16.76,0,0,0-.23-2.79A7.36,7.36,0,0,0,146.86,28.75Z"/><rect class="cls-2" x="152.12" y="13.07" width="9.02" height="29.03"/><path class="cls-2" d="M156.66,1.9a4.38,4.38,0,0,0-3.2,1.34,4.38,4.38,0,0,0-1.34,3.2,4.44,4.44,0,0,0,2.76,4.13,4.67,4.67,0,0,0,1.78.35,4.33,4.33,0,0,0,3.17-1.31,4.33,4.33,0,0,0,1.31-3.17,4.43,4.43,0,0,0-1.31-3.2A4.28,4.28,0,0,0,156.66,1.9Z"/><polygon class="cls-2" points="192.95 12.95 182.08 12.95 174.81 23.25 174.81 1.2 165.79 1.2 165.79 42.1 174.81 42.1 174.81 34.59 176.32 33.02 181.49 42.04 191.91 42.04 183.01 26.57 192.95 12.95"/></svg>