<svg id="Layer_1" data-name="Layer 1" xmlns="http://www.w3.org/2000/svg" viewBox="0 0 400 88.5"><defs><style>.cls-1{fill:none;stroke:#24ae5f;stroke-miterlimit:10;}.cls-2{fill:#24ae5f;}</style></defs><polygon class="cls-1" points="52.91 43.59 30.89 3.42 9.61 3.42 9.61 86.05 29.45 86.05 29.45 44.07 52.91 87.01 76.36 44.07 76.36 86.05 96.2 86.05 96.2 3.42 74.8 3.42 52.91 43.59"/><path class="cls-2" d="M162.48,33.18a31.49,31.49,0,0,0-10.71-6.13,40.59,40.59,0,0,0-13.23-2.11A41.66,41.66,0,0,0,126,26.87a32,32,0,0,0-10.88,5.83,29.17,29.17,0,0,0-7.64,9.75,30.46,30.46,0,0,0-2.89,13.65,30.11,30.11,0,0,0,2.89,13.59,28.67,28.67,0,0,0,7.64,9.62A32.38,32.38,0,0,0,126,85.08,41.66,41.66,0,0,0,138.54,87,40.58,40.58,0,0,0,152,84.78a32.83,32.83,0,0,0,11.37-6.67l-12-10.71A10.17,10.17,0,0,1,146,71.55a20.72,20.72,0,0,1-7.46,1.38,13.14,13.14,0,0,1-7.64-2.28,18,18,0,0,1-5.35-5.77l47-.12V56.22a34.21,34.21,0,0,0-2.89-13.17A28.92,28.92,0,0,0,162.48,33.18ZM124,50.44a22.27,22.27,0,0,1,1.5-3.48,12.32,12.32,0,0,1,2.23-3,19.06,19.06,0,0,1,4.93-3.67A13,13,0,0,1,138.54,39a13.29,13.29,0,0,1,6,1.26A19.27,19.27,0,0,1,149.49,44a12.55,12.55,0,0,1,2.22,3,22.27,22.27,0,0,1,1.5,3.48Z"/><path class="cls-2" d="M235.24,33.18a31.35,31.35,0,0,0-10.7-6.13,40.59,40.59,0,0,0-13.23-2.11,41.66,41.66,0,0,0-12.51,1.93,32.12,32.12,0,0,0-10.89,5.83,29.14,29.14,0,0,0-7.63,9.75,30.33,30.33,0,0,0-2.89,13.65,30,30,0,0,0,2.89,13.59,28.64,28.64,0,0,0,7.63,9.62,32.52,32.52,0,0,0,10.89,5.77A41.66,41.66,0,0,0,211.31,87a40.58,40.58,0,0,0,13.41-2.23,32.83,32.83,0,0,0,11.37-6.67l-12-10.71a10.19,10.19,0,0,1-5.3,4.15,20.67,20.67,0,0,1-7.45,1.38,13.12,13.12,0,0,1-7.64-2.28,17.9,17.9,0,0,1-5.35-5.77l47-.12V56.22a34.58,34.58,0,0,0-2.89-13.17A28.94,28.94,0,0,0,235.24,33.18ZM196.75,50.44A21.41,21.41,0,0,1,198.26,47a12.55,12.55,0,0,1,2.22-3,19.41,19.41,0,0,1,4.93-3.67,13.08,13.08,0,0,1,5.9-1.26,13.32,13.32,0,0,1,6,1.26A19.06,19.06,0,0,1,222.25,44a12.58,12.58,0,0,1,2.23,3,22.27,22.27,0,0,1,1.5,3.48Z"/><path class="cls-2" d="M295.08,58.44a18.07,18.07,0,0,0-4.21-4.63,29.22,29.22,0,0,0-7-4l-7.33-3.13a35.13,35.13,0,0,1-4-1.86c-1.08-.6-1.63-1.22-1.63-1.86a2.35,2.35,0,0,1,1.09-1.81c.72-.56,2.08-.84,4.09-.84a11.69,11.69,0,0,1,2.7.36,18.11,18.11,0,0,1,3,1c1,.45,1.94.91,2.82,1.39a18.29,18.29,0,0,1,2.29,1.44l10.1-12.27a26.31,26.31,0,0,0-9.2-5.29,34.64,34.64,0,0,0-11.72-2,39.28,39.28,0,0,0-8.36.91,24.28,24.28,0,0,0-7.52,2.94,16,16,0,0,0-5.47,5.54A16.42,16.42,0,0,0,252.56,43a16.82,16.82,0,0,0,3.37,10.46q3.36,4.45,10.58,7.58l7.34,3.12A26.68,26.68,0,0,1,277.58,66a2.13,2.13,0,0,1,1,1.86,1.74,1.74,0,0,1-.6,1.45,4.77,4.77,0,0,1-1.2.72,3.76,3.76,0,0,1-1.69.36,24,24,0,0,1-4.69-.48c-1.6-.32-3.15-.7-4.63-1.14a29.42,29.42,0,0,1-3.91-1.45,11.24,11.24,0,0,1-2.52-1.5l-7.94,12.75A32.47,32.47,0,0,0,261,84.42a36.14,36.14,0,0,0,14,2.59,34.36,34.36,0,0,0,8-1A22.5,22.5,0,0,0,290.27,83a17.11,17.11,0,0,0,5.23-5.47,15.27,15.27,0,0,0,2-8.06,33.81,33.81,0,0,0-.48-5.78A15,15,0,0,0,295.08,58.44Z"/><rect class="cls-2" x="305.96" y="26.03" width="18.64" height="60.02"/><path class="cls-2" d="M315.34,2.93a9,9,0,0,0-6.61,2.77A9,9,0,0,0,306,12.32a9,9,0,0,0,.72,3.6,9.17,9.17,0,0,0,5,4.94,9.48,9.48,0,0,0,3.66.72,8.91,8.91,0,0,0,6.56-2.71,8.93,8.93,0,0,0,2.7-6.55,9.15,9.15,0,0,0-2.7-6.62A8.85,8.85,0,0,0,315.34,2.93Z"/><polygon class="cls-2" points="390.39 25.79 367.9 25.79 352.87 47.08 352.87 1.49 334.23 1.49 334.23 86.05 352.87 86.05 352.87 70.53 356 67.28 366.7 85.92 388.23 85.92 369.83 53.93 390.39 25.79"/></svg>